<mxfile modified="2020-02-17T05:01:48.581Z" host="www.draw.io" agent="Mozilla/5.0 (X11; Linux x86_64; rv:75.0) Gecko/20100101 Firefox/75.0" etag="1bP81q4SMd4Bb5a5Rk9I" version="12.7.0" type="github">
  <diagram id="W21kjCjBcw54PkJHCKSu" name="Page-1">
    <mxGraphModel dx="866" dy="495" grid="1" gridSize="10" guides="1" tooltips="1" connect="1" arrows="1" fold="1" page="1" pageScale="1" pageWidth="850" pageHeight="1100" math="0" shadow="0">
      <root>
        <mxCell id="0"/>
        <mxCell id="1" parent="0"/>
        <mxCell id="U6HVyg4jyfnwYGFgma0N-3" value="" style="group" vertex="1" connectable="0" parent="1">
          <mxGeometry x="240" y="118" width="320" height="160" as="geometry"/>
        </mxCell>
        <mxCell id="tKD3vwLSFtcub1kZ8sqg-1" value="" style="triangle;whiteSpace=wrap;html=1;rounded=1;strokeColor=#009900;shadow=0;comic=0;strokeWidth=3;fillColor=none;" parent="U6HVyg4jyfnwYGFgma0N-3" vertex="1">
          <mxGeometry width="55.65217391304348" height="84" as="geometry"/>
        </mxCell>
        <mxCell id="tKD3vwLSFtcub1kZ8sqg-4" value="" style="endArrow=none;html=1;curved=1;strokeColor=#009900;shadow=0;comic=0;strokeWidth=3;" parent="U6HVyg4jyfnwYGFgma0N-3" edge="1">
          <mxGeometry width="50" height="50" relative="1" as="geometry">
            <mxPoint x="112.69565217391305" y="2" as="sourcePoint"/>
            <mxPoint x="168.34782608695653" y="2" as="targetPoint"/>
            <Array as="points">
              <mxPoint x="140.52173913043478" y="160"/>
            </Array>
          </mxGeometry>
        </mxCell>
        <mxCell id="tKD3vwLSFtcub1kZ8sqg-5" value="" style="endArrow=none;html=1;strokeWidth=3;fillColor=#d5e8d4;strokeColor=#009900;shadow=0;comic=0;" parent="U6HVyg4jyfnwYGFgma0N-3" edge="1">
          <mxGeometry width="50" height="50" relative="1" as="geometry">
            <mxPoint x="196.17391304347825" y="82" as="sourcePoint"/>
            <mxPoint x="196.17391304347825" y="2" as="targetPoint"/>
          </mxGeometry>
        </mxCell>
        <mxCell id="tKD3vwLSFtcub1kZ8sqg-7" value="" style="endArrow=none;html=1;strokeColor=#009900;shadow=0;comic=0;strokeWidth=3;" parent="U6HVyg4jyfnwYGFgma0N-3" edge="1">
          <mxGeometry width="50" height="50" relative="1" as="geometry">
            <mxPoint x="48.69565217391304" y="80" as="sourcePoint"/>
            <mxPoint x="55.65217391304348" y="4" as="targetPoint"/>
            <Array as="points">
              <mxPoint x="104.34782608695652" y="80"/>
              <mxPoint x="62.608695652173914" y="44"/>
              <mxPoint x="104.34782608695652" y="4"/>
            </Array>
          </mxGeometry>
        </mxCell>
        <mxCell id="JPppOdnV444SuDeU7xFQ-1" value="" style="shape=dataStorage;whiteSpace=wrap;html=1;size=0.8666666666666667;fillColor=#517040;strokeColor=#009900;shadow=0;" parent="U6HVyg4jyfnwYGFgma0N-3" vertex="1">
          <mxGeometry x="214.26086956521738" y="2" width="41.73913043478261" height="80" as="geometry"/>
        </mxCell>
        <mxCell id="Hm2rXNlEBhApogHnTLwG-2" value="" style="endArrow=none;html=1;strokeColor=#009900;shadow=0;comic=0;strokeWidth=3;" parent="U6HVyg4jyfnwYGFgma0N-3" edge="1">
          <mxGeometry width="50" height="50" relative="1" as="geometry">
            <mxPoint x="262.95652173913044" y="80" as="sourcePoint"/>
            <mxPoint x="269.9130434782609" y="4" as="targetPoint"/>
            <Array as="points">
              <mxPoint x="318.6086956521739" y="80"/>
              <mxPoint x="276.8695652173913" y="44"/>
              <mxPoint x="318.6086956521739" y="4"/>
            </Array>
          </mxGeometry>
        </mxCell>
        <mxCell id="Hm2rXNlEBhApogHnTLwG-4" value="&lt;font style=&quot;font-size: 8px&quot; face=&quot;Courier New&quot; color=&quot;#009900&quot;&gt;TM&lt;/font&gt;" style="text;html=1;strokeColor=none;fillColor=none;align=center;verticalAlign=middle;whiteSpace=wrap;rounded=0;shadow=1;fontFamily=Helvetica;" parent="U6HVyg4jyfnwYGFgma0N-3" vertex="1">
          <mxGeometry x="278.2608695652174" y="42" width="41.73913043478261" as="geometry"/>
        </mxCell>
      </root>
    </mxGraphModel>
  </diagram>
</mxfile>
